:SAMPLES-PER-SECOND 30
:FULLY-SPECIFIED
:DEGREES
28
root  -0.32382 41.052 -3.84167 178.232 -83.7495 -176.72
RightUpLeg  -1.7791 -6.6766 -4.33681
RightLeg  2.82588 3.0042 2.99615
RightFoot  -1.49616 0.000706943 -0.166041
RightToes  -4.65663e-010 0 -3.6325e-017
Spine  1.56564 0.753569 2.25208
Spine1  3.67389 1.29471 -2.59075
HEad  -7.79521 -4.04735 1.24407
LeftShoulder1  0.435628 0.967052 -9.59523
LeftArm  -15.038 15.0599 -5.02569
LeftForeArm  11.1276 -5.04794 -2.43189
LeftHand  -0.244104 0.0205437 5.32207
RightShoulder  0.544878 -0.120065 8.67815
RightArm  -14.5432 -7.08125 1.86695
RightForeArm  2.73071 4.56743 4.45422
RightHand  -0.598408 0.344176 -12.1817
LeftUpLeg  0.0361422 5.5674 3.23616
LeftLeg  2.36182 16.3187 -3.71556
LeftFoot  -3.62877 -0.00279989 0.50436
LeftToes  -7.27628e-011 -1.6005e-012 -1.37987e-011
29
root  -0.328276 41.052 -3.84497 178.217 -83.7387 -176.71
RightUpLeg  -1.77136 -6.6696 -4.32988
RightLeg  2.83218 3.01657 2.99227
RightFoot  -1.51567 0.000655352 -0.16524
RightToes  -4.65663e-010 0 -3.6325e-017
Spine  1.55246 0.749296 2.23656
Spine1  3.70337 1.29929 -2.59519
HEad  -7.75887 -3.99696 1.24595
LeftShoulder1  0.432148 0.99286 -9.63373
LeftArm  -15.0676 15.0097 -5.01605
LeftForeArm  11.1463 -5.01699 -2.42078
LeftHand  -0.244104 0.0205437 5.32207
RightShoulder  0.539243 -0.159169 8.69995
RightArm  -14.5369 -7.02036 1.85638
RightForeArm  2.75103 4.62133 4.46711
RightHand  -0.579376 0.209 -12.0705
LeftUpLeg  0.0437122 5.58169 3.24765
LeftLeg  2.3835 16.3169 -3.71585
LeftFoot  -3.65068 -0.00251203 0.499886
LeftToes  -7.27628e-011 -1.6005e-012 -1.37987e-011
30
root  -0.333077 41.0521 -3.84667 178.301 -83.7378 -176.804
RightUpLeg  -1.75884 -6.68072 -4.34303
RightLeg  2.84067 3.03421 2.99546
RightFoot  -1.52954 0.00181539 -0.183253
RightToes  -4.65663e-010 0 -3.6325e-017
Spine  1.53621 0.745558 2.2203
Spine1  3.75892 1.30128 -2.61555
HEad  -7.7652 -3.9345 1.26517
LeftShoulder1  0.426285 1.0282 -9.65342
LeftArm  -15.1015 14.9596 -5.02268
LeftForeArm  11.2007 -4.99235 -2.40863
LeftHand  -0.244104 0.0205437 5.32207
RightShoulder  0.53372 -0.194554 8.70578
RightArm  -14.5191 -6.97223 1.85343
RightForeArm  2.88132 4.63519 4.47079
RightHand  -0.566552 0.14597 -11.9344
LeftUpLeg  0.0661921 5.57761 3.23955
LeftLeg  2.3798 16.3133 -3.71556
LeftFoot  -3.66165 -0.00187616 0.490004
LeftToes  -7.27628e-011 -1.6005e-012 -1.37987e-011
31
root  -0.339562 41.0521 -3.84743 178.384 -83.7497 -176.883
RightUpLeg  -1.74924 -6.69917 -4.35838
RightLeg  2.83772 3.03365 3.00654
RightFoot  -1.53667 0.00431638 -0.222091
RightToes  -4.65663e-010 0 -3.6325e-017
Spine  1.49352 0.74252 2.21143
Spine1  3.82472 1.30226 -2.63944
HEad  -7.74909 -3.90593 1.24938
LeftShoulder1  0.422092 1.05507 -9.65576
LeftArm  -15.126 14.9357 -5.02647
LeftForeArm  11.2392 -4.96895 -2.39736
LeftHand  -0.244104 0.0205437 5.32207
RightShoulder  0.526237 -0.22958 8.64289
RightArm  -14.5407 -6.97462 1.91304
RightForeArm  3.26146 4.59694 4.43707
RightHand  -0.562435 0.191629 -11.7557
LeftUpLeg  0.0793601 5.56239 3.2263
LeftLeg  2.35693 16.3094 -3.71507
LeftFoot  -3.6572 -0.00118919 0.479328
LeftToes  -7.27628e-011 -1.6005e-012 -1.37987e-011
32
root  -0.346013 41.0521 -3.84843 178.407 -83.7653 -176.878
RightUpLeg  -1.76064 -6.70441 -4.35959
RightLeg  2.82795 3.02083 3.01365
RightFoot  -1.54223 0.00506749 -0.233755
RightToes  -4.65663e-010 0 -3.6325e-017
Spine  1.44462 0.74035 2.1876
Spine1  3.85383 1.3027 -2.61903
HEad  -7.65635 -3.91472 1.16956
LeftShoulder1  0.422852 1.05275 -9.67203
LeftArm  -15.1214 14.9464 -4.99117
LeftForeArm  11.2023 -4.94317 -2.39307
LeftHand  -0.244104 0.0205437 5.32207
RightShoulder  0.516077 -0.272373 8.52921
RightArm  -14.6024 -7.00246 2.00297
RightForeArm  3.67642 4.53188 4.38273
RightHand  -0.563589 0.268795 -11.6257
LeftUpLeg  0.0619397 5.55383 3.22345
LeftLeg  2.34025 16.3068 -3.71473
LeftFoot  -3.64843 -0.000222175 0.464299
LeftToes  -7.27628e-011 -1.6005e-012 -1.37987e-011
33
root  -0.350434 41.0521 -3.84914 178.406 -83.7764 -176.848
RightUpLeg  -1.77947 -6.70147 -4.35738
RightLeg  2.82455 3.01566 3.01536
RightFoot  -1.54667 0.00187911 -0.184243
RightToes  -4.65663e-010 0 -3.6325e-017
Spine  1.43651 0.739212 2.14681
Spine1  3.83253 1.30306 -2.56565
HEad  -7.55678 -3.92661 1.10343
LeftShoulder1  0.430257 1.01661 -9.72783
LeftArm  -15.0831 14.9931 -4.89019
LeftForeArm  11.1333 -4.94624 -2.39874
LeftHand  -0.244104 0.0205437 5.32207
RightShoulder  0.510419 -0.292753 8.44557
RightArm  -14.6463 -7.02597 2.03185
RightForeArm  3.83268 4.45508 4.34695
RightHand  -0.567456 0.317225 -11.6098
LeftUpLeg  0.0369149 5.55307 3.22577
LeftLeg  2.33869 16.3067 -3.71491
LeftFoot  -3.64585 0.000800963 0.448398
LeftToes  -7.27628e-011 -1.6005e-012 -1.37987e-011
34
root  -0.354669 41.0519 -3.84872 178.46 -83.784 -176.901
RightUpLeg  -1.77671 -6.71257 -4.3713
RightLeg  2.83505 3.01763 3.02052
RightFoot  -1.55296 -0.00101631 -0.139281
RightToes  -4.65663e-010 0 -3.6325e-017
Spine  1.46494 0.739273 2.11914
Spine1  3.80707 1.30382 -2.54873
HEad  -7.52893 -3.92764 1.13171
LeftShoulder1  0.438444 0.97565 -9.7806
LeftArm  -15.0356 15.0597 -4.76958
LeftForeArm  11.1002 -4.99721 -2.40991
LeftHand  -0.244104 0.0205437 5.32207
RightShoulder  0.517515 -0.246356 8.43614
RightArm  -14.6261 -7.07834 1.96417
RightForeArm  3.75908 4.39928 4.34275
RightHand  -0.57201 0.339552 -11.6586
LeftUpLeg  0.0491122 5.5431 3.21449
LeftLeg  2.3205 16.3139 -3.71619
LeftFoot  -3.64357 0.000788562 0.448591
LeftToes  -7.27628e-011 -1.6005e-012 -1.37987e-011
35
root  -0.360948 41.0518 -3.84636 178.587 -83.7912 -177.038
RightUpLeg  -1.76396 -6.73789 -4.39746
RightLeg  2.85863 3.02213 3.02908
RightFoot  -1.56818 0.000606535 -0.164481
RightToes  -4.65663e-010 0 -3.6325e-017
Spine  1.47098 0.740698 2.10999
Spine1  3.82821 1.30597 -2.57657
HEad  -7.52333 -3.92894 1.20121
LeftShoulder1  0.436749 0.983988 -9.76853
LeftArm  -15.0226 15.0923 -4.72851
LeftForeArm  11.0717 -5.05731 -2.41833
LeftHand  -0.244104 0.0205437 5.32207
RightShoulder  0.530692 -0.166697 8.45447
RightArm  -14.575 -7.16842 1.87471
RightForeArm  3.66486 4.4127 4.35323
RightHand  -0.5799 0.377186 -11.7439
LeftUpLeg  0.0948457 5.52013 3.18769
LeftLeg  2.26243 16.3304 -3.7212
LeftFoot  -3.63248 -0.000462909 0.46804
LeftToes  -7.27628e-011 -1.6005e-012 -1.37987e-011
